<?xml version="1.0" encoding="utf-8"?>
<!-- Generator: Adobe Illustrator 27.2.0, SVG Export Plug-In . SVG Version: 6.00 Build 0)  -->
<svg version="1.1" id="Layer_1" xmlns="http://www.w3.org/2000/svg" xmlns:xlink="http://www.w3.org/1999/xlink" x="0px" y="0px"
	 viewBox="0 0 1172 423" style="enable-background:new 0 0 1172 423;" xml:space="preserve">
<style type="text/css">
	.st0{fill:#ED1C24;}
</style>
<g>
	<g>
		<path class="st0" d="M275.34,361c-32.84,0-61.92-22.07-70.73-53.68l-47.9-170.79c-1.7-6.13-7.35-10.42-13.74-10.42
			c-7.86,0-14.26,6.4-14.26,14.26v213.34H69.55V140.37c0-40.49,32.94-73.42,73.42-73.42c32.85,0,61.94,22.08,70.74,53.71
			l47.89,170.76c1.7,6.13,7.35,10.42,13.74,10.42c7.86,0,14.26-6.4,14.26-14.26V74.23h59.17v213.34
			C348.77,328.06,315.83,361,275.34,361z"/>
	</g>
	<g>
		<path class="st0" d="M756.83,353.71H597.38v-59.16h159.45c14.06,0,25.49-11.44,25.49-25.5c0-14.06-11.44-25.5-25.49-25.5h-73.81
			c-46.68,0-84.66-37.98-84.66-84.66c0-46.68,37.98-84.66,84.66-84.66h144.1v59.17h-144.1c-14.06,0-25.5,11.44-25.5,25.5
			c0,14.06,11.44,25.5,25.5,25.5h73.81c46.68,0,84.66,37.98,84.66,84.66C841.49,315.73,803.51,353.71,756.83,353.71z"/>
	</g>
	<path class="st0" d="M1037.42,117.79c-9.88-30.41-38.01-50.84-70-50.84c-31.99,0-60.12,20.43-70,50.84l-76.66,235.93l62.21,0
		l70.72-217.64c1.61-4.96,6.48-9.96,13.73-9.96c7.25,0,12.12,5,13.73,9.96l70.71,217.64h62.21L1037.42,117.79z"/>
	<path class="st0" d="M551.05,117.79c-9.88-30.41-38.01-50.84-70-50.84c-31.99,0-60.12,20.43-70,50.84l-76.66,235.93l62.21,0
		l70.72-217.64c1.61-4.96,6.48-9.96,13.73-9.96c7.25,0,12.12,5,13.73,9.96l70.72,217.64h62.21L551.05,117.79z"/>
</g>
</svg>
